<svg xmlns="http://www.w3.org/2000/svg" width="156" height="29" fill="none" class="hidden flex-shrink-0 [@media(min-width:380px)]:block" aria-label="Bento grids"><g clip-path="url(#logo_svg__a)"><g clip-path="url(#logo_svg__b)"><rect width="26" height="26" x="12.938" y="-14.612" fill="url(#logo_svg__c)" rx="3"></rect><path fill="url(#logo_svg__d)" d="M-5.062.388h15v28h-15z"></path><rect width="26" height="26" x="12.938" y="14.388" fill="url(#logo_svg__e)" rx="3"></rect><rect width="26" height="26" x="12.938" y="14.388" fill="url(#logo_svg__f)" rx="3"></rect></g></g><path fill="#F3F4F6" d="M39.011 23.193q-1.32 0-2.458-.57-1.111-.594-1.707-1.422v1.733H32V4.8h2.846v6.932q.596-.828 1.707-1.397a5.2 5.2 0 0 1 2.458-.595q2.64 0 4.424 1.966 1.81 1.967 1.811 4.76 0 2.795-1.811 4.76-1.785 1.968-4.424 1.967m-.517-2.587q1.68 0 2.768-1.19 1.086-1.19 1.086-2.95 0-1.758-1.086-2.949t-2.768-1.19q-1.708 0-2.794 1.19t-1.087 2.95q0 1.758 1.087 2.949t2.794 1.19M53.086 23.193q-2.95 0-4.864-1.889-1.89-1.888-1.889-4.837 0-2.872 1.915-4.787 1.914-1.94 4.838-1.94 2.69 0 4.45 1.707 1.784 1.708 1.784 4.71 0 .516-.025.93H49.127q.104 1.579 1.216 2.562 1.113.957 2.768.957 2.484 0 3.7-1.966l2.173 1.552q-1.863 3-5.898 3.001m-3.83-8.175h7.193q-.232-1.346-1.216-2.096-.957-.776-2.251-.776-1.346 0-2.406.75-1.035.75-1.32 2.122M61.34 22.934V10h2.846v1.759Q65.402 9.74 68.12 9.74q2.25 0 3.596 1.475 1.345 1.475 1.345 3.932v7.787h-2.846v-7.321q0-1.553-.724-2.406-.724-.88-1.966-.88-1.475 0-2.406 1.113-.932 1.112-.932 3.13v6.364zM81.258 23.064q-1.966 0-3.208-1.087-1.215-1.112-1.216-3.208v-6.235h-2.69V10h2.69V6.403h2.846v3.596h3.7v2.535h-3.7v5.77q0 1.19.518 1.707.517.492 1.655.491.931 0 1.527-.258v2.535q-.931.285-2.122.285M95.655 21.253q-1.94 1.94-4.812 1.94-2.871 0-4.838-1.94-1.94-1.967-1.94-4.786 0-2.82 1.94-4.76 1.967-1.967 4.838-1.967 2.873 0 4.812 1.966 1.965 1.94 1.966 4.76t-1.966 4.787m-4.812-.699q1.682 0 2.768-1.164 1.113-1.19 1.113-2.924 0-1.732-1.113-2.897-1.086-1.19-2.768-1.19-1.707 0-2.82 1.19-1.086 1.164-1.086 2.897t1.086 2.924q1.113 1.164 2.82 1.164"></path><path fill="#5878B6" d="M103.984 19.131q1.113 1.113 2.742 1.113t2.743-1.113q1.112-1.138 1.112-2.846 0-1.707-1.112-2.82-1.113-1.137-2.743-1.138t-2.742 1.139q-1.112 1.111-1.112 2.82 0 1.707 1.112 2.845m2.484 9.469q-1.888 0-3.493-.647-1.604-.62-2.561-1.733l1.733-2.044q1.734 1.89 4.295 1.889 1.681 0 2.794-1.087 1.112-1.06 1.112-2.95v-1.19q-.62.88-1.733 1.45-1.113.569-2.406.569-2.613 0-4.424-1.889Q100 19.054 100 16.285q0-2.742 1.785-4.63 1.81-1.915 4.424-1.915 1.293 0 2.406.57 1.113.542 1.733 1.422V10h2.846v12.056q0 3.233-1.862 4.89-1.837 1.655-4.864 1.655"></path><path fill="url(#logo_svg__g)" fill-opacity="0.6" d="M103.984 19.131q1.113 1.113 2.742 1.113t2.743-1.113q1.112-1.138 1.112-2.846 0-1.707-1.112-2.82-1.113-1.137-2.743-1.138t-2.742 1.139q-1.112 1.111-1.112 2.82 0 1.707 1.112 2.845m2.484 9.469q-1.888 0-3.493-.647-1.604-.62-2.561-1.733l1.733-2.044q1.734 1.89 4.295 1.889 1.681 0 2.794-1.087 1.112-1.06 1.112-2.95v-1.19q-.62.88-1.733 1.45-1.113.569-2.406.569-2.613 0-4.424-1.889Q100 19.054 100 16.285q0-2.742 1.785-4.63 1.81-1.915 4.424-1.915 1.293 0 2.406.57 1.113.542 1.733 1.422V10h2.846v12.056q0 3.233-1.862 4.89-1.837 1.655-4.864 1.655"></path><path fill="#5878B6" d="M116.119 22.934V10h2.846V12.3a3.43 3.43 0 0 1 1.319-1.759q.984-.672 2.096-.673.672 0 1.112.104v2.923a4 4 0 0 0-1.423-.232q-1.293 0-2.199 1.06-.905 1.035-.905 2.898v6.312z"></path><path fill="url(#logo_svg__h)" fill-opacity="0.6" d="M116.119 22.934V10h2.846V12.3a3.43 3.43 0 0 1 1.319-1.759q.984-.672 2.096-.673.672 0 1.112.104v2.923a4 4 0 0 0-1.423-.232q-1.293 0-2.199 1.06-.905 1.035-.905 2.898v6.312z"></path><path fill="#5878B6" d="M126.464 8.103q-.776 0-1.345-.543a1.87 1.87 0 0 1-.569-1.371q0-.777.569-1.32.569-.57 1.345-.569.802 0 1.346.57.543.542.543 1.319 0 .801-.543 1.37a1.83 1.83 0 0 1-1.346.544m-1.423 14.831V10h2.846v12.935z"></path><path fill="url(#logo_svg__i)" fill-opacity="0.6" d="M126.464 8.103q-.776 0-1.345-.543a1.87 1.87 0 0 1-.569-1.371q0-.777.569-1.32.569-.57 1.345-.569.802 0 1.346.57.543.542.543 1.319 0 .801-.543 1.37a1.83 1.83 0 0 1-1.346.544m-1.423 14.831V10h2.846v12.935z"></path><path fill="#5878B6" d="M136.109 23.193q-2.638 0-4.449-1.966-1.786-1.967-1.786-4.76 0-2.795 1.786-4.76 1.81-1.967 4.449-1.967 1.32 0 2.432.595 1.113.57 1.708 1.397V4.8h2.846v18.134h-2.846v-1.733q-.595.828-1.708 1.423-1.112.57-2.432.569m-2.25-3.777q1.086 1.19 2.768 1.19t2.768-1.19 1.087-2.95q0-1.758-1.087-2.949t-2.768-1.19q-1.682 0-2.768 1.19-1.087 1.19-1.087 2.95 0 1.758 1.087 2.949"></path><path fill="url(#logo_svg__j)" fill-opacity="0.6" d="M136.109 23.193q-2.638 0-4.449-1.966-1.786-1.967-1.786-4.76 0-2.795 1.786-4.76 1.81-1.967 4.449-1.967 1.32 0 2.432.595 1.113.57 1.708 1.397V4.8h2.846v18.134h-2.846v-1.733q-.595.828-1.708 1.423-1.112.57-2.432.569m-2.25-3.777q1.086 1.19 2.768 1.19t2.768-1.19 1.087-2.95q0-1.758-1.087-2.949t-2.768-1.19q-1.682 0-2.768 1.19-1.087 1.19-1.087 2.95 0 1.758 1.087 2.949"></path><path fill="#5878B6" d="M150.158 23.193q-1.785 0-3.156-.673a4.48 4.48 0 0 1-2.044-2.07l2.095-1.5q.388.828 1.242 1.32.853.465 1.863.465.802 0 1.319-.362.544-.362.544-1.009 0-.57-.44-.931-.415-.363-1.552-.725l-1.139-.31q-3.44-.931-3.389-3.958 0-1.681 1.32-2.691 1.319-1.01 3.311-1.009 3.001 0 4.372 2.2l-1.966 1.5q-.983-1.32-2.458-1.32-.698 0-1.216.337-.517.31-.517.88 0 .516.336.879.337.362 1.216.647l1.32.388q1.81.543 2.716 1.474.906.906.906 2.458 0 1.836-1.32 2.923t-3.363 1.087"></path><path fill="url(#logo_svg__k)" fill-opacity="0.6" d="M150.158 23.193q-1.785 0-3.156-.673a4.48 4.48 0 0 1-2.044-2.07l2.095-1.5q.388.828 1.242 1.32.853.465 1.863.465.802 0 1.319-.362.544-.362.544-1.009 0-.57-.44-.931-.415-.363-1.552-.725l-1.139-.31q-3.44-.931-3.389-3.958 0-1.681 1.32-2.691 1.319-1.01 3.311-1.009 3.001 0 4.372 2.2l-1.966 1.5q-.983-1.32-2.458-1.32-.698 0-1.216.337-.517.31-.517.88 0 .516.336.879.337.362 1.216.647l1.32.388q1.81.543 2.716 1.474.906.906.906 2.458 0 1.836-1.32 2.923t-3.363 1.087"></path><path stroke="#596782" stroke-width="0.1" d="M103.984 19.131q1.113 1.113 2.742 1.113t2.743-1.113q1.112-1.138 1.112-2.846 0-1.707-1.112-2.82-1.113-1.137-2.743-1.138t-2.742 1.139q-1.112 1.111-1.112 2.82 0 1.707 1.112 2.845Zm2.484 9.469q-1.888 0-3.493-.647-1.604-.62-2.561-1.733l1.733-2.044q1.734 1.89 4.295 1.889 1.681 0 2.794-1.087 1.112-1.06 1.112-2.95v-1.19q-.62.88-1.733 1.45-1.113.569-2.406.569-2.613 0-4.424-1.889Q100 19.054 100 16.285q0-2.742 1.785-4.63 1.81-1.915 4.424-1.915 1.293 0 2.406.57 1.113.542 1.733 1.422V10h2.846v12.056q0 3.233-1.862 4.89-1.837 1.655-4.864 1.655ZM116.119 22.934V10h2.846V12.3a3.43 3.43 0 0 1 1.319-1.759q.984-.672 2.096-.673.672 0 1.112.104v2.923a4 4 0 0 0-1.423-.232q-1.293 0-2.199 1.06-.905 1.035-.905 2.898v6.312zM126.464 8.103q-.776 0-1.345-.543a1.87 1.87 0 0 1-.569-1.371q0-.777.569-1.32.569-.57 1.345-.569.802 0 1.346.57.543.542.543 1.319 0 .801-.543 1.37a1.83 1.83 0 0 1-1.346.544Zm-1.423 14.831V10h2.846v12.935zM136.109 23.193q-2.638 0-4.449-1.966-1.786-1.967-1.786-4.76 0-2.795 1.786-4.76 1.81-1.967 4.449-1.967 1.32 0 2.432.595 1.113.57 1.708 1.397V4.8h2.846v18.134h-2.846v-1.733q-.595.828-1.708 1.423-1.112.57-2.432.569Zm-2.25-3.777q1.086 1.19 2.768 1.19t2.768-1.19 1.087-2.95q0-1.758-1.087-2.949t-2.768-1.19q-1.682 0-2.768 1.19-1.087 1.19-1.087 2.95 0 1.758 1.087 2.949ZM150.158 23.193q-1.785 0-3.156-.673a4.48 4.48 0 0 1-2.044-2.07l2.095-1.5q.388.828 1.242 1.32.853.465 1.863.465.802 0 1.319-.362.544-.362.544-1.009 0-.57-.44-.931-.415-.363-1.552-.725l-1.139-.31q-3.44-.931-3.389-3.958 0-1.681 1.32-2.691 1.319-1.01 3.311-1.009 3.001 0 4.372 2.2l-1.966 1.5q-.983-1.32-2.458-1.32-.698 0-1.216.337-.517.31-.517.88 0 .516.336.879.337.362 1.216.647l1.32.388q1.81.543 2.716 1.474.906.906.906 2.458 0 1.836-1.32 2.923t-3.363 1.087Z"></path><defs><radialGradient id="logo_svg__g" cx="0" cy="0" r="1" gradientTransform="matrix(0 20.2 -48.1965 0 123.5 16.3)" gradientUnits="userSpaceOnUse"><stop stop-color="#fff"></stop><stop offset="1" stop-color="#fff" stop-opacity="0"></stop></radialGradient><radialGradient id="logo_svg__h" cx="0" cy="0" r="1" gradientTransform="matrix(0 20.2 -48.1965 0 123.5 16.3)" gradientUnits="userSpaceOnUse"><stop stop-color="#fff"></stop><stop offset="1" stop-color="#fff" stop-opacity="0"></stop></radialGradient><radialGradient id="logo_svg__i" cx="0" cy="0" r="1" gradientTransform="matrix(0 20.2 -48.1965 0 123.5 16.3)" gradientUnits="userSpaceOnUse"><stop stop-color="#fff"></stop><stop offset="1" stop-color="#fff" stop-opacity="0"></stop></radialGradient><radialGradient id="logo_svg__j" cx="0" cy="0" r="1" gradientTransform="matrix(0 20.2 -48.1965 0 123.5 16.3)" gradientUnits="userSpaceOnUse"><stop stop-color="#fff"></stop><stop offset="1" stop-color="#fff" stop-opacity="0"></stop></radialGradient><radialGradient id="logo_svg__k" cx="0" cy="0" r="1" gradientTransform="matrix(0 20.2 -48.1965 0 123.5 16.3)" gradientUnits="userSpaceOnUse"><stop stop-color="#fff"></stop><stop offset="1" stop-color="#fff" stop-opacity="0"></stop></radialGradient><linearGradient id="logo_svg__c" x1="29" x2="15.5" y1="-1.883" y2="9.117" gradientUnits="userSpaceOnUse"><stop stop-color="#5F29FF"></stop><stop offset="1" stop-color="#B399FF"></stop></linearGradient><linearGradient id="logo_svg__d" x1="-16.5" x2="7.5" y1="13.268" y2="13.268" gradientUnits="userSpaceOnUse"><stop stop-color="#E6B000"></stop><stop offset="1" stop-color="#FFDB66"></stop></linearGradient><linearGradient id="logo_svg__e" x1="25.938" x2="10.188" y1="22.16" y2="33.233" gradientUnits="userSpaceOnUse"><stop stop-color="#855CFF"></stop><stop offset="1" stop-color="#AB8FFF"></stop></linearGradient><linearGradient id="logo_svg__f" x1="14.5" x2="25" y1="16.117" y2="26.617" gradientUnits="userSpaceOnUse"><stop stop-color="#42E6FF"></stop><stop offset="1" stop-color="#00BEDB"></stop></linearGradient><clipPath id="logo_svg__a"><rect width="24" height="24" y="2.45" fill="#fff" rx="4"></rect></clipPath><clipPath id="logo_svg__b"><rect width="28.125" height="28.125" x="-2.063" y="0.388" fill="#fff" rx="5.819"></rect></clipPath></defs></svg>
